<svg width="34" height="36" viewBox="0 0 34 36" fill="none" xmlns="http://www.w3.org/2000/svg">
<rect y="7.07568" width="33.356" height="28.8075" rx="2" fill="#7F87FF"/>
<rect x="3.03238" y="16.6782" width="27.2913" height="16.1726" fill="white"/>
<path d="M9.88605 9.40397C9.15903 10.1256 8.20429 10.5728 7.1845 10.6694C6.16472 10.766 5.14299 10.506 4.2934 9.93374C3.44382 9.36147 2.81894 8.51232 2.52525 7.53098C2.23155 6.54964 2.28721 5.49682 2.68274 4.55191C3.07827 3.60701 3.78919 2.82848 4.69438 2.34898C5.59957 1.86947 6.64302 1.71867 7.64693 1.92225C8.65085 2.12584 9.55311 2.67122 10.2 3.46547C10.8469 4.25972 11.1983 5.2537 11.1945 6.27804L9.40928 6.27138C9.41156 5.66007 9.2018 5.06687 8.81575 4.59288C8.4297 4.11888 7.89124 3.7934 7.29212 3.6719C6.69299 3.5504 6.07028 3.6404 5.53007 3.92656C4.98987 4.21273 4.56559 4.67734 4.32955 5.24125C4.0935 5.80516 4.06028 6.43347 4.23556 7.01912C4.41083 7.60477 4.78375 8.11154 5.29077 8.45306C5.7978 8.79458 6.40755 8.94974 7.01615 8.89209C7.62474 8.83444 8.19452 8.56755 8.62839 8.1369L9.88605 9.40397Z" fill="#CDD0FF"/>
<path d="M19.9939 9.40397C19.2669 10.1256 18.3122 10.5728 17.2924 10.6694C16.2726 10.766 15.2509 10.506 14.4013 9.93374C13.5517 9.36147 12.9268 8.51232 12.6331 7.53098C12.3394 6.54964 12.3951 5.49682 12.7906 4.55191C13.1861 3.60701 13.8971 2.82848 14.8023 2.34898C15.7075 1.86947 16.7509 1.71867 17.7548 1.92225C18.7587 2.12584 19.661 2.67122 20.3079 3.46547C20.9548 4.25972 21.3062 5.2537 21.3024 6.27804L19.5172 6.27138C19.5194 5.66007 19.3097 5.06687 18.9236 4.59288C18.5376 4.11888 17.9991 3.7934 17.4 3.6719C16.8009 3.5504 16.1782 3.6404 15.638 3.92656C15.0977 4.21273 14.6735 4.67734 14.4374 5.24125C14.2014 5.80516 14.1682 6.43347 14.3434 7.01912C14.5187 7.60477 14.8916 8.11154 15.3987 8.45306C15.9057 8.79458 16.5154 8.94974 17.124 8.89209C17.7326 8.83444 18.3024 8.56755 18.7363 8.1369L19.9939 9.40397Z" fill="#CDD0FF"/>
<path d="M30.1018 9.40397C29.3748 10.1256 28.42 10.5728 27.4003 10.6694C26.3805 10.766 25.3588 10.506 24.5092 9.93374C23.6596 9.36147 23.0347 8.51232 22.741 7.53098C22.4473 6.54964 22.503 5.49682 22.8985 4.55191C23.294 3.60701 24.005 2.82848 24.9101 2.34898C25.8153 1.86947 26.8588 1.71867 27.8627 1.92225C28.8666 2.12584 29.7689 2.67122 30.4158 3.46547C31.0626 4.25972 31.4141 5.2537 31.4103 6.27804L29.625 6.27138C29.6273 5.66007 29.4176 5.06687 29.0315 4.59288C28.6455 4.11888 28.107 3.7934 27.5079 3.6719C26.9088 3.5504 26.286 3.6404 25.7458 3.92656C25.2056 4.21273 24.7814 4.67734 24.5453 5.24125C24.3093 5.80516 24.276 6.43347 24.4513 7.01912C24.6266 7.60477 24.9995 8.11154 25.5065 8.45306C26.0136 8.79458 26.6233 8.94974 27.2319 8.89209C27.8405 8.83444 28.4103 8.56755 28.8442 8.1369L30.1018 9.40397Z" fill="#CDD0FF"/>
<rect x="11.1187" y="16.6777" width="2.02158" height="16.1726" fill="#CDD0FF"/>
<rect x="3.03244" y="23.248" width="2.02158" height="27.2913" transform="rotate(-90 3.03244 23.248)" fill="#CDD0FF"/>
<rect x="3.03244" y="28.8076" width="2.02158" height="27.2913" transform="rotate(-90 3.03244 28.8076)" fill="#CDD0FF"/>
<rect x="20.7212" y="16.6777" width="2.02158" height="16.1726" fill="#CDD0FF"/>
</svg>
