<svg width="34" height="34" viewBox="0 0 34 34" fill="none" xmlns="http://www.w3.org/2000/svg">
<rect width="27.6779" height="10.422" rx="4" transform="matrix(-1 0 0 1 30.7382 16.5)" fill="#7F87FF"/>
<path d="M24.2066 31.5544C24.7576 32.2736 25.9045 31.9482 25.9954 31.0467L26.8742 22.3402C26.9337 21.7512 26.4713 21.2398 25.8793 21.2398L18.3315 21.2398C17.5028 21.2398 17.0337 22.19 17.5377 22.8479L24.2066 31.5544Z" fill="#7F87FF"/>
<mask id="path-3-outside-1_333_614" maskUnits="userSpaceOnUse" x="0" y="0" width="34" height="22" fill="black">
<rect fill="white" width="34" height="22"/>
<path d="M26.6777 3C28.8869 3 30.6777 4.79086 30.6777 7V13.4219H13.0801L9.53125 18.0547C8.98026 18.7733 7.8344 18.4478 7.74316 17.5469L7.32715 13.4219H7C4.79086 13.4219 3 11.631 3 9.42188V7C3 4.79086 4.79086 3 7 3H26.6777Z"/>
</mask>
<path d="M26.6777 3C28.8869 3 30.6777 4.79086 30.6777 7V13.4219H13.0801L9.53125 18.0547C8.98026 18.7733 7.8344 18.4478 7.74316 17.5469L7.32715 13.4219H7C4.79086 13.4219 3 11.631 3 9.42188V7C3 4.79086 4.79086 3 7 3H26.6777Z" fill="#7F87FF"/>
<path d="M30.6777 7H33.6777V7H30.6777ZM30.6777 13.4219V16.4219H33.6777V13.4219H30.6777ZM13.0801 13.4219V10.4219H11.5991L10.6985 11.5976L13.0801 13.4219ZM9.53125 18.0547L11.9119 19.8802L11.9128 19.879L9.53125 18.0547ZM7.74316 17.5469L4.75831 17.8479L4.75843 17.8491L7.74316 17.5469ZM7.32715 13.4219L10.312 13.1208L10.0398 10.4219H7.32715V13.4219ZM7 13.4219L7 16.4219H7V13.4219ZM7 3V0H7L7 3ZM26.6777 3V6C27.23 6 27.6777 6.44772 27.6777 7H30.6777H33.6777C33.6777 3.13401 30.5437 0 26.6777 0V3ZM30.6777 7H27.6777V13.4219H30.6777H33.6777V7H30.6777ZM30.6777 13.4219V10.4219H13.0801V13.4219V16.4219H30.6777V13.4219ZM13.0801 13.4219L10.6985 11.5976L7.14969 16.2304L9.53125 18.0547L11.9128 19.879L15.4616 15.2462L13.0801 13.4219ZM9.53125 18.0547L7.15057 16.2292C8.25332 14.7911 10.5455 15.4436 10.7279 17.2446L7.74316 17.5469L4.75843 17.8491C5.12327 21.4521 9.7072 22.7554 11.9119 19.8802L9.53125 18.0547ZM7.74316 17.5469L10.728 17.2458L10.312 13.1208L7.32715 13.4219L4.34229 13.7229L4.75831 17.8479L7.74316 17.5469ZM7.32715 13.4219V10.4219H7V13.4219V16.4219H7.32715V13.4219ZM7 13.4219L7 10.4219C6.44771 10.4219 6 9.97415 6 9.42188H3H0C0 13.2879 3.13401 16.4219 7 16.4219L7 13.4219ZM3 9.42188H6V7H3H0V9.42188H3ZM3 7H6C6 6.44772 6.44772 6 7 6V3L7 0C3.13401 2.38419e-07 0 3.13401 0 7H3ZM7 3V6H26.6777V3V0H7V3Z" fill="white" mask="url(#path-3-outside-1_333_614)"/>
</svg>
