<svg width="32" height="32" viewBox="0 0 32 32" fill="none" xmlns="http://www.w3.org/2000/svg">
<mask id="mask0_333_977" style="mask-type:alpha" maskUnits="userSpaceOnUse" x="0" y="0" width="32" height="32">
<rect width="32" height="32" rx="16" fill="#EDEEFC"/>
</mask>
<g mask="url(#mask0_333_977)">
<path fill-rule="evenodd" clip-rule="evenodd" d="M12.0736 15.8C12.0736 18.451 9.9246 20.6 7.27363 20.6C4.62267 20.6 2.47363 18.451 2.47363 15.8C2.47363 13.149 4.62267 11 7.27363 11C9.9246 11 12.0736 13.149 12.0736 15.8ZM10.4736 15.8C10.4736 17.5673 9.04094 19 7.27363 19C5.50632 19 4.07363 17.5673 4.07363 15.8C4.07363 14.0327 5.50632 12.6 7.27363 12.6C9.04094 12.6 10.4736 14.0327 10.4736 15.8Z" fill="#7F87FF"/>
<path d="M15.7967 28.7033C16.2051 28.137 16.4395 27.8604 16.8718 27.4767C14.6824 24.7582 11.198 23 7.27363 23C2.09413 23 -2.31895 26.0627 -4 30.3536C-3.59048 30.7603 -3.15909 31.1449 -2.70774 31.5056C-1.45594 27.5662 2.47101 24.6 7.27363 24.6C10.846 24.6 13.9339 26.2412 15.7967 28.7033Z" fill="#7F87FF"/>
<path fill-rule="evenodd" clip-rule="evenodd" d="M29.0736 15.8C29.0736 18.451 26.9246 20.6 24.2736 20.6C21.6227 20.6 19.4736 18.451 19.4736 15.8C19.4736 13.149 21.6227 11 24.2736 11C26.9246 11 29.0736 13.149 29.0736 15.8ZM27.4736 15.8C27.4736 17.5673 26.0409 19 24.2736 19C22.5063 19 21.0736 17.5673 21.0736 15.8C21.0736 14.0327 22.5063 12.6 24.2736 12.6C26.0409 12.6 27.4736 14.0327 27.4736 15.8Z" fill="#7F87FF"/>
<path d="M34.255 31.5057C34.7064 31.1449 35.1378 30.7603 35.5473 30.3536C33.8662 26.0627 29.4531 23 24.2736 23C20.3767 23 16.9136 24.7337 14.7215 27.4199L15.7432 28.7132C17.6051 26.2456 20.6965 24.6 24.2736 24.6C29.0763 24.6 33.0032 27.5662 34.255 31.5057Z" fill="#7F87FF"/>
</g>
</svg>
