<svg width="14" height="14" viewBox="0 0 14 14" fill="none" xmlns="http://www.w3.org/2000/svg">
<path d="M12.4483 6.83438C12.4483 3.73388 9.93488 1.22043 6.83438 1.22043C3.73388 1.22043 1.22043 3.73388 1.22043 6.83438C1.22043 9.93488 3.73388 12.4483 6.83438 12.4483V13.6688C3.05986 13.6688 0 10.6089 0 6.83438C0 3.05986 3.05986 0 6.83438 0C10.6089 0 13.6688 3.05986 13.6688 6.83438C13.6688 10.6089 10.6089 13.6688 6.83438 13.6688V12.4483C9.93488 12.4483 12.4483 9.93488 12.4483 6.83438Z" fill="#7F87FF"/>
<path d="M5.94687 8.61092V8.49304C5.94918 8.08854 5.985 7.7661 6.05435 7.52571C6.126 7.28532 6.23001 7.09116 6.36639 6.94323C6.50276 6.7953 6.66687 6.66124 6.85872 6.54105C7.00203 6.44859 7.13031 6.35267 7.24357 6.25328C7.35683 6.15389 7.44697 6.0441 7.514 5.9239C7.58103 5.8014 7.61455 5.66502 7.61455 5.51478C7.61455 5.35529 7.57641 5.21545 7.50013 5.09526C7.42386 4.97507 7.321 4.88261 7.19156 4.81789C7.06443 4.75317 6.92344 4.72081 6.76857 4.72081C6.61833 4.72081 6.47618 4.75433 6.34212 4.82136C6.20806 4.88608 6.09826 4.98316 6.01274 5.1126C5.92722 5.23972 5.88099 5.39806 5.87406 5.58759H4.45947C4.47103 5.12531 4.58198 4.74393 4.79232 4.44344C5.00265 4.14065 5.28118 3.91529 5.62789 3.76735C5.9746 3.61711 6.35714 3.54199 6.77551 3.54199C7.23548 3.54199 7.64229 3.61827 7.99593 3.77082C8.34958 3.92106 8.62695 4.13949 8.82804 4.42611C9.02913 4.71272 9.12968 5.05828 9.12968 5.46277C9.12968 5.73321 9.08461 5.9736 8.99446 6.18394C8.90663 6.39196 8.78297 6.57688 8.62348 6.73867C8.46399 6.89816 8.27561 7.04262 8.05834 7.17206C7.87574 7.2807 7.7255 7.39396 7.60762 7.51184C7.49204 7.62972 7.40537 7.7661 7.34758 7.92096C7.29211 8.07583 7.26322 8.26652 7.2609 8.49304V8.61092H5.94687ZM6.63336 10.8299C6.40221 10.8299 6.20459 10.749 6.04048 10.5872C5.87868 10.4231 5.79894 10.2266 5.80125 9.99776C5.79894 9.77125 5.87868 9.57709 6.04048 9.41529C6.20459 9.25349 6.40221 9.17259 6.63336 9.17259C6.85294 9.17259 7.04594 9.25349 7.21236 9.41529C7.37879 9.57709 7.46315 9.77125 7.46546 9.99776C7.46315 10.1503 7.4227 10.2902 7.34411 10.4173C7.26784 10.5421 7.16729 10.6426 7.04247 10.7189C6.91766 10.7929 6.78129 10.8299 6.63336 10.8299Z" fill="#7F87FF"/>
</svg>
