<svg width="31" height="31" viewBox="0 0 31 31" fill="none" xmlns="http://www.w3.org/2000/svg">
<path d="M5.93542 23.2792C7.24583 22.2771 8.71042 21.487 10.3292 20.9089C11.9479 20.3307 13.6438 20.0417 15.4167 20.0417C17.1896 20.0417 18.8854 20.3307 20.5042 20.9089C22.1229 21.487 23.5875 22.2771 24.8979 23.2792C25.7972 22.2257 26.4974 21.0309 26.9984 19.6948C27.4995 18.3587 27.75 16.9326 27.75 15.4167C27.75 11.9993 26.5488 9.08941 24.1464 6.68698C21.7439 4.28455 18.834 3.08333 15.4167 3.08333C11.9993 3.08333 9.08941 4.28455 6.68698 6.68698C4.28455 9.08941 3.08333 11.9993 3.08333 15.4167C3.08333 16.9326 3.33385 18.3587 3.8349 19.6948C4.33594 21.0309 5.03611 22.2257 5.93542 23.2792ZM15.4167 16.9583C13.9007 16.9583 12.6224 16.438 11.5818 15.3974C10.5411 14.3568 10.0208 13.0785 10.0208 11.5625C10.0208 10.0465 10.5411 8.76823 11.5818 7.72761C12.6224 6.68698 13.9007 6.16667 15.4167 6.16667C16.9326 6.16667 18.2109 6.68698 19.2516 7.72761C20.2922 8.76823 20.8125 10.0465 20.8125 11.5625C20.8125 13.0785 20.2922 14.3568 19.2516 15.3974C18.2109 16.438 16.9326 16.9583 15.4167 16.9583ZM15.4167 30.8333C13.284 30.8333 11.2799 30.4286 9.40417 29.6193C7.52847 28.8099 5.89688 27.7115 4.50938 26.324C3.12188 24.9365 2.02344 23.3049 1.21406 21.4292C0.404688 19.5535 0 17.5493 0 15.4167C0 13.284 0.404688 11.2799 1.21406 9.40417C2.02344 7.52847 3.12188 5.89688 4.50938 4.50938C5.89688 3.12188 7.52847 2.02344 9.40417 1.21406C11.2799 0.404688 13.284 0 15.4167 0C17.5493 0 19.5535 0.404688 21.4292 1.21406C23.3049 2.02344 24.9365 3.12188 26.324 4.50938C27.7115 5.89688 28.8099 7.52847 29.6193 9.40417C30.4286 11.2799 30.8333 13.284 30.8333 15.4167C30.8333 17.5493 30.4286 19.5535 29.6193 21.4292C28.8099 23.3049 27.7115 24.9365 26.324 26.324C24.9365 27.7115 23.3049 28.8099 21.4292 29.6193C19.5535 30.4286 17.5493 30.8333 15.4167 30.8333Z" fill="#7F87FF"/>
</svg>
