<svg width="17" height="17" viewBox="0 0 17 17" fill="none" xmlns="http://www.w3.org/2000/svg">
<path d="M10.7697 0.25C9.11532 0.25 7.70577 0.825599 6.55676 1.97461C5.40775 3.12362 4.83215 4.53316 4.83215 6.1875C4.83215 6.85617 4.93896 7.4904 5.15344 8.08789C5.33926 8.60541 5.5843 9.07316 5.88879 9.49023L0.353638 15.0254L1.93176 16.6035L7.46692 11.0684C7.88399 11.3729 8.35174 11.6179 8.86926 11.8037C9.46675 12.0182 10.101 12.125 10.7697 12.125C12.424 12.125 13.8335 11.5494 14.9825 10.4004C16.1316 9.25138 16.7072 7.84184 16.7072 6.1875C16.7072 4.53316 16.1316 3.12362 14.9825 1.97461C13.8335 0.825599 12.424 0.25 10.7697 0.25ZM10.7697 2.5C11.7979 2.5 12.6637 2.85699 13.382 3.5752C14.1002 4.2934 14.4572 5.1593 14.4572 6.1875C14.4572 7.2157 14.1002 8.0816 13.382 8.7998C12.6637 9.51801 11.7979 9.875 10.7697 9.875C9.74145 9.875 8.87556 9.51801 8.15735 8.7998C7.43914 8.0816 7.08215 7.2157 7.08215 6.1875C7.08215 5.1593 7.43914 4.2934 8.15735 3.5752C8.87556 2.85699 9.74145 2.5 10.7697 2.5Z" fill="#7F87FF" stroke="#7F87FF" stroke-width="0.5"/>
</svg>
